<?xml version="1.0" encoding="utf-8"?>
<!-- Generator: Adobe Illustrator 25.2.1, SVG Export Plug-In . SVG Version: 6.00 Build 0)  -->
<svg version="1.1" id="Capa_1" xmlns="http://www.w3.org/2000/svg" xmlns:xlink="http://www.w3.org/1999/xlink" x="0px" y="0px"
	 viewBox="0 0 86 86" style="enable-background:new 0 0 86 86;" xml:space="preserve">
<style type="text/css">
	.st0{fill:#4CBEA0;}
</style>
<g>
	<path class="st0" d="M0.4,48.9l0.1,25.4c0,0.3,0.2,0.6,0.5,0.8l20.2,10.6c0.1,0.1,0.3,0.1,0.4,0.1c0,0,0,0,0,0
		c0.1,0.1,0.1,0.1,0.2,0.2C22,86,22.1,86,22.3,86c0.1,0,0.3,0,0.4-0.1l20-10.8c0.2-0.1,0.3-0.3,0.4-0.4c0.1,0.2,0.2,0.3,0.4,0.4
		l20.2,10.6c0.1,0.1,0.3,0.1,0.4,0.1c0,0,0,0,0,0c0.1,0.1,0.1,0.1,0.2,0.2c0.1,0.1,0.3,0.1,0.5,0.1c0.1,0,0.3,0,0.4-0.1l20-10.8
		c0.3-0.2,0.5-0.5,0.5-0.8V47.9c0,0,0,0,0,0s0,0,0,0c0,0,0,0,0-0.1c0,0,0-0.1,0-0.1c0,0,0-0.1,0-0.1c0,0,0-0.1-0.1-0.1
		c0,0,0-0.1-0.1-0.1c0,0-0.1-0.1-0.1-0.1c0,0-0.1,0-0.1-0.1c0,0,0,0-0.1,0c0,0,0,0-0.1,0c0,0,0,0,0,0l-20.6-10c-0.1,0-0.2,0-0.3,0
		V10.9c0,0,0,0,0,0c0,0,0,0,0,0c0,0,0,0,0-0.1c0,0,0-0.1,0-0.1c0,0,0-0.1,0-0.1c0,0,0-0.1-0.1-0.1c0,0,0-0.1-0.1-0.1
		c0,0-0.1-0.1-0.1-0.1c0,0-0.1,0-0.1-0.1c0,0,0,0-0.1,0c0,0,0,0-0.1,0c0,0,0,0,0,0l-20.6-10c-0.2-0.1-0.5-0.1-0.7,0L22,10.7
		c-0.3,0.2-0.5,0.5-0.5,0.8c0,0,0,0,0,0c0,0.1-0.1,0.2-0.1,0.3l0.1,25.2c-0.1,0-0.2,0-0.3,0.1L0.9,47.8c-0.3,0.2-0.5,0.5-0.5,0.8
		c0,0,0,0,0,0C0.4,48.7,0.4,48.8,0.4,48.9z M61.3,11L43.4,21l-19-9.5l18.4-9.6L61.3,11z M62.5,37l-18.2,9.6V22.5l18.2-10.2V37z
		 M65.7,59.6l18.2-10.2v24.4l-18.2,9.9C65.7,83.6,65.7,59.6,65.7,59.6z M45.8,48.6l18.4-9.6L82.7,48L64.8,58L45.8,48.6z M23.2,59.6
		l18.2-10.2v24.4l-18.2,9.9V59.6z M3.3,48.6l18.4-9.6L40.2,48L22.3,58L3.3,48.6z"/>
</g>
</svg>
