<?xml version="1.0" encoding="utf-8"?>
<!-- Generator: Adobe Illustrator 25.2.1, SVG Export Plug-In . SVG Version: 6.00 Build 0)  -->
<svg version="1.1" id="Layer_1" xmlns="http://www.w3.org/2000/svg" xmlns:xlink="http://www.w3.org/1999/xlink" x="0px" y="0px"
	 viewBox="0 0 512 512" style="enable-background:new 0 0 512 512;" xml:space="preserve">
<style type="text/css">
	.st0{fill:none;stroke:#4CBEA0;stroke-width:30.0134;stroke-linecap:round;stroke-linejoin:round;stroke-miterlimit:10.0045;}
</style>
<g>
	<path class="st0" d="M218.2,271.3L54.7,182.5c-5.5-3-12.1,1-12.1,7.2v206.2c0,2.9,1.6,5.7,4.1,7.1l163.5,93
		c5.5,3.1,12.3-0.8,12.3-7.1V278.5C222.5,275.5,220.9,272.8,218.2,271.3L218.2,271.3z"/>
	<path class="st0" d="M435.3,108.4L257,15.9c-2.4-1.2-5.2-1.2-7.6,0L73.7,108.4c-5.8,3.1-5.8,11.4,0,14.5l175.7,93
		c2.4,1.3,5.2,1.3,7.6,0l178.3-93C441.2,119.9,441.2,111.4,435.3,108.4z"/>
	<path class="st0" d="M457.3,182.5l-163.5,88.9c-2.6,1.4-4.3,4.2-4.3,7.2v210.2c0,6.3,6.8,10.2,12.3,7.1l163.5-93
		c2.6-1.5,4.1-4.2,4.1-7.1V189.7C469.4,183.4,462.8,179.5,457.3,182.5L457.3,182.5z"/>
</g>
</svg>
