<?xml version="1.0" encoding="utf-8"?>
<!-- Generator: Adobe Illustrator 25.2.1, SVG Export Plug-In . SVG Version: 6.00 Build 0)  -->
<svg version="1.1" id="Capa_1" xmlns="http://www.w3.org/2000/svg" xmlns:xlink="http://www.w3.org/1999/xlink" x="0px" y="0px"
	 viewBox="0 0 82.6 82.6" style="enable-background:new 0 0 82.6 82.6;" xml:space="preserve">
<style type="text/css">
	.st0{fill:#4CBEA0;}
</style>
<g>
	<path class="st0" d="M5.2,20l0.2,42.8c0,0.5,0.3,1.1,0.8,1.3l34.2,17.9c0.2,0.1,0.5,0.2,0.7,0.2c0,0,0,0,0,0
		c0.1,0.1,0.2,0.2,0.4,0.3c0.2,0.1,0.5,0.2,0.8,0.2c0.2,0,0.5-0.1,0.7-0.2l33.7-18.3c0.5-0.3,0.8-0.8,0.8-1.3V18.3c0,0,0,0,0,0
		c0,0,0,0,0,0c0,0,0-0.1,0-0.1c0-0.1,0-0.2,0-0.2c0-0.1,0-0.1-0.1-0.2c0-0.1-0.1-0.1-0.1-0.2c0,0-0.1-0.1-0.1-0.1
		c0-0.1-0.1-0.1-0.2-0.2c0,0-0.1-0.1-0.1-0.1c0,0-0.1-0.1-0.1-0.1c0,0-0.1,0-0.1,0c0,0-0.1,0-0.1,0L41.7,0.1c-0.4-0.2-0.9-0.2-1.3,0
		L6.1,18.1c-0.5,0.3-0.8,0.8-0.8,1.3c0,0,0,0,0,0C5.2,19.6,5.2,19.8,5.2,20z M72.5,18.5L42.2,35.4l-32.1-16L41.2,3.2L72.5,18.5z
		 M43.7,78.6V38l30.7-17.2v41.1L43.7,78.6z"/>
</g>
</svg>
